# 3ds Max Wavefront OBJ Exporter v0.94b - (c)2007 guruware
# File Created: 02.11.2007 15:01:01

mtllib leaf_02.mtl

#
# object Plane01
#

v  1  0 -0.2 
v  -1 0 -0.2
v  -1 0 1 
v  1  0 1 
#v  0.5  0 0 
#v  0.5	0 0.5
#v  -0.5 0 0.5 
#v  -0.5 0 0 
# 4 vertices

vn 0 1.0 0
vn 0 1.0 0
vn 0 1.0 0
vn 0 1.0 0
# 4 vertex normals

vt 0   0   0.500000
vt 1.0 0   0.500000
vt 1.0 1.0 0.500000
vt 0   1.0 0.500000
# 4 texture coords

g Plane01
usemtl Models\Leaf\leaf_02.fx
s 1
f 1/1/1 2/2/2 3/3/3 
f 1/1/1 3/3/3 4/4/4
# 2 faces


