# 3ds Max Wavefront OBJ Exporter v0.94b - (c)2007 guruware
# File Created: 02.11.2007 15:01:01

mtllib leaf_02.mtl

#
# object Plane01
#

v  0.134052 -0.425197 -0.852690
v  0.000142 -0.512244 -0.883575
v  0.000674 -0.463005 -0.821309
v  -0.144269 -0.418357 -0.850049
v  -0.242646 -0.292512 -0.789838
v  -0.297738 -0.170369 -0.652700
v  -0.003061 -0.282956 -0.603384
v  -0.000681 -0.397828 -0.755135
v  0.327053 -0.188926 -0.656600
v  0.243756 -0.332565 -0.801130
v  -0.308940 -0.061830 -0.454673
v  -0.005794 -0.153871 -0.399811
v  0.312191 -0.056339 -0.444972
v  -0.260890 -0.006906 -0.288541
v  -0.007560 -0.073814 -0.231839
v  0.235942 -0.002818 -0.255202
v  -0.185312 0.004749 -0.150877
v  -0.008634 -0.025166 -0.129768
v  0.144544 0.005541 -0.145848
v  -0.063972 -0.002678 -0.037148
v  -0.009249 -0.000696 -0.035011
v  0.033181 0.000842 -0.033354
v  -0.022099 0.000373 0.027830
v  -0.004764 0.000359 0.027161
v  0.020317 -0.000633 0.024153
# 25 vertices

vn -0.322517 0.709554 -0.626511
vn 0.000334 0.784387 -0.620272
vn -0.004849 0.750163 -0.661235
vn 0.359034 0.651320 -0.668488
vn 0.382878 0.721426 -0.577017
vn 0.364105 0.793103 -0.488278
vn 0.040254 0.822188 -0.567790
vn 0.027963 0.752950 -0.657483
vn -0.309822 0.779957 -0.543763
vn -0.309173 0.746598 -0.589070
vn 0.332208 0.847918 -0.413125
vn 0.017241 0.881992 -0.470949
vn -0.317143 0.830712 -0.457535
vn 0.318456 0.883558 -0.343381
vn 0.002941 0.914726 -0.404064
vn -0.305815 0.879254 -0.365227
vn 0.253240 0.933591 -0.253529
vn -0.018102 0.952520 -0.303937
vn -0.260511 0.916257 -0.304314
vn 0.056519 0.988767 -0.138368
vn -0.030687 0.990615 -0.133196
vn -0.082883 0.987723 -0.132417
vn -0.001001 0.998929 -0.046260
vn -0.002719 0.999957 -0.008902
vn 0.043751 0.998415 0.035389
# 25 vertex normals

vt 0.572469 0.907787 0.500000
vt 0.491906 0.948839 0.500000
vt 0.501079 0.876349 0.500000
vt 0.426093 0.892792 0.500000
vt 0.357540 0.795464 0.500000
vt 0.313939 0.660545 0.500000
vt 0.500793 0.666251 0.500000
vt 0.500974 0.799379 0.500000
vt 0.681038 0.673450 0.500000
vt 0.647479 0.813989 0.500000
vt 0.320403 0.495340 0.500000
vt 0.500561 0.495350 0.500000
vt 0.674181 0.495359 0.500000
vt 0.361183 0.368572 0.500000
vt 0.500380 0.362466 0.500000
vt 0.624314 0.357030 0.500000
vt 0.411232 0.279704 0.500000
vt 0.500270 0.281717 0.500000
vt 0.578108 0.283477 0.500000
vt 0.472449 0.214805 0.500000
vt 0.500177 0.213114 0.500000
vt 0.521675 0.211803 0.500000
vt 0.484266 0.148527 0.500000
vt 0.500094 0.152368 0.500000
vt 0.514362 0.150335 0.500000
# 25 texture coords

g Plane01
usemtl Models\Leaf\leaf_02.fx
s 1
f 1/1/1 2/2/2 3/3/3 
f 2/2/2 4/4/4 3/3/3 
f 5/5/5 6/6/6 7/7/7 
f 7/7/7 8/8/8 5/5/5 
f 7/7/7 9/9/9 10/10/10 
f 10/10/10 8/8/8 7/7/7 
f 4/4/4 5/5/5 8/8/8 
f 8/8/8 3/3/3 4/4/4 
f 1/1/1 3/3/3 8/8/8 
f 8/8/8 10/10/10 1/1/1 
f 6/6/6 11/11/11 12/12/12 
f 12/12/12 7/7/7 6/6/6 
f 7/7/7 12/12/12 13/13/13 
f 13/13/13 9/9/9 7/7/7 
f 14/14/14 15/15/15 12/12/12 
f 12/12/12 11/11/11 14/14/14 
f 12/12/12 15/15/15 16/16/16 
f 16/16/16 13/13/13 12/12/12 
f 17/17/17 18/18/18 15/15/15 
f 15/15/15 14/14/14 17/17/17 
f 15/15/15 18/18/18 19/19/19 
f 19/19/19 16/16/16 15/15/15 
f 20/20/20 21/21/21 18/18/18 
f 18/18/18 17/17/17 20/20/20 
f 18/18/18 21/21/21 22/22/22 
f 22/22/22 19/19/19 18/18/18 
f 20/20/20 23/23/23 24/24/24 
f 24/24/24 21/21/21 20/20/20 
f 24/24/24 25/25/25 22/22/22 
f 22/22/22 21/21/21 24/24/24 
# 30 faces

